<?xml version="1.0" standalone="no"?>
<!DOCTYPE svg PUBLIC "-//W3C//DTD SVG 20010904//EN"
 "http://www.w3.org/TR/2001/REC-SVG-20010904/DTD/svg10.dtd">
<svg version="1.0" xmlns="http://www.w3.org/2000/svg"
 width="74.000000pt" height="74.000000pt" viewBox="0 0 74.000000 74.000000"
 preserveAspectRatio="xMidYMid meet">
<metadata>
Created by potrace 1.14, written by Peter Selinger 2001-2017
</metadata>
<g transform="translate(0.000000,74.000000) scale(0.100000,-0.100000)"
fill="#000000" stroke="none">
<path d="M305 679 c-107 -58 -183 -105 -207 -130 l-28 -27 0 -153 0 -152 33
-31 c48 -44 216 -137 257 -142 37 -4 47 -1 187 80 123 70 123 70 123 246 0
179 3 174 -146 259 -126 72 -163 81 -219 50z m190 -88 c56 -33 107 -67 115
-76 10 -12 13 -51 13 -151 0 -120 -3 -136 -19 -149 -51 -37 -216 -125 -235
-125 -24 0 -202 99 -234 131 -17 17 -19 33 -19 148 -1 95 3 133 13 145 24 28
214 136 241 136 14 0 70 -27 125 -59z"/>
<path d="M323 475 c-106 -45 -82 -205 34 -219 86 -11 152 79 118 161 -24 57
-94 83 -152 58z m92 -60 c14 -13 25 -33 25 -45 0 -27 -43 -70 -70 -70 -27 0
-70 43 -70 70 0 12 11 32 25 45 13 14 34 25 45 25 12 0 32 -11 45 -25z"/>
</g>
</svg>
